<svg xmlns="http://www.w3.org/2000/svg" width="237.181" height="265.587" viewBox="0 0 237.181 265.587"><defs><style>.a{fill:#fff;}</style></defs><g transform="translate(0 45.451) rotate(-14)"><path class="a" d="M14.82,0H6.647a6.647,6.647,0,0,0,0,13.293H14.82A6.647,6.647,0,0,0,14.82,0Z" transform="translate(60.755 186.993)"/><path class="a" d="M154.642,0H102.355c-.053,0-.1,0-.157,0H19.94A19.962,19.962,0,0,0,0,19.944V206.935a19.962,19.962,0,0,0,19.94,19.94H121.854a19.962,19.962,0,0,0,19.94-19.94V167.062s0-.006,0-.008,0-.006,0-.008v-78.1h12.848a33.271,33.271,0,0,0,33.233-33.233V33.233A33.271,33.271,0,0,0,154.642,0ZM95.381,123.664a6.645,6.645,0,0,0,7.243-1.441L128.5,96.347v64.059H13.293V41.133h55.83V55.712A33.112,33.112,0,0,0,91.278,87.055v30.468A6.646,6.646,0,0,0,95.381,123.664ZM19.94,13.3H75.785A33.07,33.07,0,0,0,69.567,27.84H13.293v-7.9A6.654,6.654,0,0,1,19.94,13.3ZM121.854,213.581H19.939a6.654,6.654,0,0,1-6.647-6.647V173.7H128.5v33.234A6.654,6.654,0,0,1,121.854,213.581ZM174.582,55.712a19.962,19.962,0,0,1-19.94,19.94H133.15a6.647,6.647,0,0,0-4.7,1.947l-23.879,23.879V81.924a6.647,6.647,0,0,0-5.546-6.555A19.862,19.862,0,0,1,82.415,55.712V33.233a19.962,19.962,0,0,1,19.94-19.94h52.287a19.962,19.962,0,0,1,19.94,19.94V55.712Z"/><path class="a" d="M6.647,0A6.641,6.641,0,0,0,0,6.647a6.645,6.645,0,0,0,11.348,4.7,6.647,6.647,0,0,0,0-9.4A6.7,6.7,0,0,0,6.647,0Z" transform="translate(95.709 37.828)"/><path class="a" d="M6.647,0A6.641,6.641,0,0,0,0,6.647a6.645,6.645,0,0,0,11.348,4.7,6.648,6.648,0,0,0,0-9.4A6.7,6.7,0,0,0,6.647,0Z" transform="translate(122.295 37.828)"/><path class="a" d="M6.647,0A6.641,6.641,0,0,0,0,6.647a6.645,6.645,0,0,0,11.348,4.7,6.648,6.648,0,0,0,0-9.4A6.7,6.7,0,0,0,6.647,0Z" transform="translate(148.882 37.828)"/></g></svg>